<svg width="50" height="50" viewBox="0 0 50 50" fill="none" xmlns="http://www.w3.org/2000/svg">
<path d="M24.9998 4.16667C20.8794 4.16667 16.8515 5.38853 13.4255 7.67772C9.99944 9.96692 7.32918 13.2206 5.75236 17.0274C4.17553 20.8342 3.76296 25.0231 4.56682 29.0644C5.37068 33.1057 7.35486 36.8178 10.2685 39.7314C13.182 42.645 16.8942 44.6292 20.9355 45.433C24.9767 46.2369 29.1656 45.8243 32.9724 44.2475C36.7792 42.6707 40.0329 40.0004 42.3221 36.5744C44.6113 33.1484 45.8332 29.1204 45.8332 25C45.8332 22.2641 45.2943 19.555 44.2473 17.0274C43.2004 14.4998 41.6658 12.2032 39.7312 10.2686C37.7967 8.33406 35.5 6.79949 32.9724 5.75251C30.4448 4.70554 27.7357 4.16667 24.9998 4.16667ZM24.9998 41.6667C21.7035 41.6667 18.4812 40.6892 15.7403 38.8578C12.9995 37.0265 10.8633 34.4235 9.60186 31.3781C8.34039 28.3326 8.01034 24.9815 8.65343 21.7485C9.29651 18.5155 10.8839 15.5458 13.2147 13.2149C15.5456 10.884 18.5153 9.29667 21.7483 8.65358C24.9814 8.0105 28.3325 8.34055 31.3779 9.60201C34.4233 10.8635 37.0263 12.9997 38.8577 15.7405C40.689 18.4813 41.6665 21.7036 41.6665 25C41.6665 29.4203 39.9106 33.6595 36.785 36.7851C33.6594 39.9107 29.4201 41.6667 24.9998 41.6667Z" fill="black"/>
<path d="M25.0002 12.5C23.0663 12.5 21.2116 13.2682 19.8442 14.6357C18.4767 16.0031 17.7085 17.8578 17.7085 19.7917C17.7085 20.3442 17.928 20.8741 18.3187 21.2648C18.7094 21.6555 19.2393 21.875 19.7918 21.875C20.3444 21.875 20.8743 21.6555 21.265 21.2648C21.6557 20.8741 21.8752 20.3442 21.8752 19.7917C21.8752 19.1736 22.0584 18.5694 22.4018 18.0555C22.7452 17.5416 23.2333 17.1411 23.8043 16.9045C24.3753 16.668 25.0036 16.6061 25.6098 16.7267C26.216 16.8473 26.7728 17.1449 27.2099 17.582C27.6469 18.019 27.9445 18.5758 28.0651 19.182C28.1857 19.7882 28.1238 20.4165 27.8873 20.9876C27.6508 21.5586 27.2502 22.0466 26.7363 22.39C26.2224 22.7334 25.6182 22.9167 25.0002 22.9167C24.4476 22.9167 23.9177 23.1362 23.527 23.5269C23.1363 23.9176 22.9168 24.4475 22.9168 25V29.1667C22.9168 29.7192 23.1363 30.2491 23.527 30.6398C23.9177 31.0305 24.4476 31.25 25.0002 31.25C25.5527 31.25 26.0826 31.0305 26.4733 30.6398C26.864 30.2491 27.0835 29.7192 27.0835 29.1667V26.75C28.767 26.2583 30.2161 25.1747 31.1637 23.6988C32.1112 22.223 32.4934 20.4543 32.2396 18.7189C31.9859 16.9835 31.1135 15.3982 29.7831 14.2554C28.4527 13.1126 26.754 12.4891 25.0002 12.5Z" fill="black"/>
<path d="M24.9998 37.5C26.1504 37.5 27.0832 36.5673 27.0832 35.4167C27.0832 34.2661 26.1504 33.3333 24.9998 33.3333C23.8492 33.3333 22.9165 34.2661 22.9165 35.4167C22.9165 36.5673 23.8492 37.5 24.9998 37.5Z" fill="black"/>
</svg>
