<?xml version="1.0" encoding="utf-8"?>
<!-- Generator: Adobe Illustrator 26.1.0, SVG Export Plug-In . SVG Version: 6.00 Build 0)  -->
<svg version="1.1" id="Layer_1" xmlns="http://www.w3.org/2000/svg" xmlns:xlink="http://www.w3.org/1999/xlink" x="0px" y="0px"
	 viewBox="0 0 517 259" style="enable-background:new 0 0 517 259;" xml:space="preserve">
<style type="text/css">
	.st0{fill:#9BBAC7;}
	.st1{fill:#6FAAC3;}
	.st2{fill:#55ABD0;}
	.st3{fill:url(#SVGID_1_);}
	.st4{fill:url(#SVGID_00000066481459043006456150000017169998357004827548_);}
	.st5{fill:url(#SVGID_00000132087223165394866820000003305546599213152155_);}
	.st6{fill:url(#SVGID_00000072959098230010261410000001946788529338478012_);}
	.st7{fill:url(#SVGID_00000098903868704939085210000017312282348371498898_);}
	.st8{fill:#E08D79;}
	.st9{fill:none;stroke:#020101;stroke-miterlimit:10;}
	.st10{fill:none;stroke:#020101;stroke-width:0.8485;stroke-miterlimit:10;}
	.st11{fill:none;stroke:#020101;stroke-width:0.7589;stroke-miterlimit:10;}
	.st12{fill:none;stroke:#020101;stroke-width:0.6573;stroke-miterlimit:10;}
</style>
<path class="st0" d="M90.5,201.6H0v8.3h90.5V201.6z"/>
<path class="st1" d="M31.5,181.8L0,201.6h90.5l14.6-19.7H31.5z"/>
<path class="st2" d="M90.5,209.9l14.6-19.7v-8.4l-14.6,19.7V209.9z"/>
<linearGradient id="SVGID_1_" gradientUnits="userSpaceOnUse" x1="96.742" y1="76.793" x2="96.742" y2="-7.268" gradientTransform="matrix(1 0 0 -1 0 260)">
	<stop  offset="5.250000e-02" style="stop-color:#6FAAC3"/>
	<stop  offset="0.4856" style="stop-color:#F2F2F2"/>
	<stop  offset="0.5174" style="stop-color:#F2F2F2"/>
	<stop  offset="0.7108" style="stop-color:#F2F2F2;stop-opacity:0.49"/>
</linearGradient>
<path class="st3" d="M43.8,209.8L95.6,259l54-28l-44.2-40.9l-14.6,19.7H43.8z"/>
<path class="st0" d="M105.1,155.4v8.3l93.3-0.1v-8.2H105.1z"/>
<path class="st1" d="M128,143.2l-22.8,12.2h93.3l3.2-12.2H128z"/>
<path class="st2" d="M198.4,163.7l3.2-12.1v-8.3l-3.2,12.2V163.7z"/>
<linearGradient id="SVGID_00000147898386705344071430000014074160674981604792_" gradientUnits="userSpaceOnUse" x1="187.258" y1="115.307" x2="187.258" y2="31.29" gradientTransform="matrix(1 0 0 -1 0 260)">
	<stop  offset="5.250000e-02" style="stop-color:#6FAAC3"/>
	<stop  offset="0.4856" style="stop-color:#F2F2F2"/>
	<stop  offset="0.5174" style="stop-color:#F2F2F2"/>
	<stop  offset="0.7108" style="stop-color:#F2F2F2;stop-opacity:0.49"/>
</linearGradient>
<path style="fill:url(#SVGID_00000147898386705344071430000014074160674981604792_);" d="M131.8,163.7l57.5,56.8l53.4-31l-41.2-38
	l-3.2,12.2H131.8z"/>
<path class="st0" d="M189.7,104.6v8.4l94.4,0.1v-8.5H189.7z"/>
<path class="st1" d="M194.1,103.4l-4.4,1.1H284l-3.1-1.1H194.1z"/>
<linearGradient id="SVGID_00000036244073881578825710000013229001602719896730_" gradientUnits="userSpaceOnUse" x1="264.6825" y1="153.427" x2="264.6825" y2="73.547" gradientTransform="matrix(1 0 0 -1 0 260)">
	<stop  offset="5.250000e-02" style="stop-color:#6FAAC3"/>
	<stop  offset="0.4856" style="stop-color:#F2F2F2"/>
	<stop  offset="0.5174" style="stop-color:#F2F2F2"/>
	<stop  offset="0.7108" style="stop-color:#F2F2F2;stop-opacity:0.49"/>
</linearGradient>
<path style="fill:url(#SVGID_00000036244073881578825710000013229001602719896730_);" d="M202.6,113.1l66.1,65.5l58-26.6L284,113.1
	H202.6z"/>
<path class="st0" d="M295.6,59.8v8.4h90.6v-8L295.6,59.8z"/>
<path class="st1" d="M292.7,65.9l0.2,8.3l2.6-6v-8.4L292.7,65.9z"/>
<path class="st2" d="M365.1,74.2l21.1-6h-90.6l-2.6,6L365.1,74.2z"/>
<linearGradient id="SVGID_00000031906154690705256500000007142068205028708227_" gradientUnits="userSpaceOnUse" x1="355.991" y1="190.4697" x2="355.991" y2="133.259" gradientTransform="matrix(1 0 0 -1 0 260)">
	<stop  offset="5.250000e-02" style="stop-color:#6FAAC3"/>
	<stop  offset="0.4856" style="stop-color:#F2F2F2"/>
	<stop  offset="0.5174" style="stop-color:#F2F2F2"/>
	<stop  offset="0.7108" style="stop-color:#F2F2F2;stop-opacity:0.49"/>
</linearGradient>
<path style="fill:url(#SVGID_00000031906154690705256500000007142068205028708227_);" d="M292.9,74.2l51.6,46.9l74.5-0.7l-53.9-46.2
	L292.9,74.2z"/>
<path class="st0" d="M403.8,18.3l89.6,0V9.9h-89.6V18.3z"/>
<path class="st1" d="M387.3,25v8.4l16.5-15V9.9L387.3,25z"/>
<path class="st2" d="M463.7,33.2l29.7-14.9l-89.6,0l-16.5,15L463.7,33.2z"/>
<linearGradient id="SVGID_00000159434033228723744610000010941520985834150551_" gradientUnits="userSpaceOnUse" x1="452.1495" y1="231.1463" x2="452.1495" y2="177.2937" gradientTransform="matrix(1 0 0 -1 0 260)">
	<stop  offset="5.250000e-02" style="stop-color:#6FAAC3"/>
	<stop  offset="0.4856" style="stop-color:#F2F2F2"/>
	<stop  offset="0.5174" style="stop-color:#F2F2F2"/>
	<stop  offset="0.7108" style="stop-color:#F2F2F2;stop-opacity:0.49"/>
</linearGradient>
<path style="fill:url(#SVGID_00000159434033228723744610000010941520985834150551_);" d="M387.3,33.3l55.6,44.1l74.1-1l-53.3-43.2
	L387.3,33.3z"/>
<path class="st8" d="M241.5,77.2c15,0,27.2-9.8,27.2-21.9s-12.2-21.9-27.2-21.9c-15,0-27.2,9.8-27.2,21.9S226.5,77.2,241.5,77.2z"/>
<path class="st9" d="M264.2,36.8l27.3-21.6"/>
<path class="st9" d="M249.8,30.8l10.2-29.7"/>
<path class="st9" d="M233.6,31.3L224,1.5"/>
<path class="st9" d="M219.9,38.3l-26.9-22"/>
<path class="st9" d="M212.4,49.9l-37-8.2"/>
<path class="st9" d="M272.9,47.8l37.1-7.7"/>
<path class="st10" d="M258.7,84.9h-33.8c-1.6,0-3-1.1-3-2.4v-1c0-1.3,1.3-2.4,3-2.4h33.8c1.6,0,3,1.1,3,2.4v1
	C261.7,83.8,260.3,84.9,258.7,84.9z"/>
<path class="st11" d="M254.7,91.8h-25.9c-1.6,0-3-1.1-3-2.4v-1c0-1.3,1.3-2.4,3-2.4h25.9c1.6,0,3,1.1,3,2.4v1
	C257.7,90.7,256.3,91.8,254.7,91.8z"/>
<path class="st12" d="M250.7,98.5h-17.9c-1.6,0-3-1.1-3-2.4v-1c0-1.3,1.3-2.4,3-2.4h17.9c1.6,0,3,1.1,3,2.4v1
	C253.7,97.4,252.4,98.5,250.7,98.5z"/>
<path class="st8" d="M258.5,139.1c11.7,0,21.1-4,21.1-8.9c0-4.9-9.5-8.9-21.1-8.9c-11.7,0-21.1,4-21.1,8.9
	C237.4,135.2,246.9,139.1,258.5,139.1z"/>
</svg>
