<?xml version="1.0" encoding="utf-8"?>
<!-- Generator: Adobe Illustrator 26.5.0, SVG Export Plug-In . SVG Version: 6.00 Build 0)  -->
<svg version="1.1" id="Layer_1" xmlns="http://www.w3.org/2000/svg" xmlns:xlink="http://www.w3.org/1999/xlink" x="0px" y="0px"
	 viewBox="0 0 360 360" style="enable-background:new 0 0 360 360;" xml:space="preserve">
<style type="text/css">
	.st0{fill:#6FAAC3;fill-opacity:0.9;}
	.st1{fill:#FFEB85;}
</style>
<path class="st0" d="M252.54,225.3c-2.25-20.1-11.31-38.85-25.7-53.17s-33.26-23.36-53.5-25.64c-20.25-2.28-40.68,2.33-57.93,13.08
	c-17.26,10.75-30.32,27.01-37.06,46.09c-15.42,1.25-29.76,8.38-40.01,19.88c-10.25,11.51-15.62,26.5-14.98,41.85
	s7.23,29.85,18.4,40.48c11.17,10.63,26.05,16.56,41.52,16.55h169.8c13.25,0,25.95-5.22,35.31-14.52c9.37-9.3,14.63-21.9,14.63-35.05
	c0-13.15-5.26-25.75-14.63-35.05c-9.37-9.3-22.07-14.52-35.31-14.52H252.54z"/>
<path class="st1" d="M248.81,42.47c1.15-1.71,1.73-3.72,1.68-5.77c-0.05-2.05-0.75-4.03-1.99-5.67c-1.24-1.64-2.96-2.86-4.93-3.49
	c-1.97-0.63-4.08-0.64-6.05-0.03c-20.68,6.43-38.41,19.91-50.03,38.07c-11.63,18.15-16.41,39.81-13.49,61.12
	c7.14,0.69,14.2,2.08,21.07,4.14c-3.08-13.05-2.41-26.69,1.95-39.38c4.36-12.68,12.23-23.9,22.7-32.35
	c-3.46,13.24-3.87,27.08-1.2,40.5c2.67,13.42,8.35,26.07,16.62,37.01c8.27,10.94,18.92,19.89,31.16,26.19
	c12.24,6.3,25.74,9.78,39.52,10.18c-13.09,9.03-28.85,13.46-44.77,12.57c3.24,6.28,5.89,12.93,7.87,19.83
	c14.42-0.61,28.5-4.59,41.08-11.62c12.58-7.03,23.31-16.9,31.32-28.83c1.15-1.71,1.74-3.72,1.68-5.77
	c-0.06-2.05-0.75-4.03-1.99-5.67c-1.24-1.64-2.96-2.86-4.93-3.49c-1.97-0.63-4.08-0.64-6.05-0.03c-14.17,4.41-29.37,4.36-43.5-0.16
	c-14.14-4.52-26.51-13.28-35.42-25.07c-8.91-11.79-13.91-26.04-14.32-40.77c-0.41-14.73,3.8-29.23,12.04-41.49H248.81z"/>
</svg>
